HIERARCHY
ROOT Hips
{
	OFFSET 0.00000 0.00000 0.00000
	CHANNELS 6 Xposition Yposition Zposition Zrotation Yrotation Xrotation 
	JOINT LHipJoint
	{
		OFFSET 0 0 0
		CHANNELS 3 Zrotation Yrotation Xrotation
		JOINT LeftHip
		{
			OFFSET 1.41261 -1.82971 0.84908
			CHANNELS 3 Zrotation Yrotation Xrotation
			JOINT LeftKnee
			{
				OFFSET 2.52554 -6.93888 0.00000
				CHANNELS 3 Zrotation Yrotation Xrotation
				JOINT LeftAnkle
				{
					OFFSET 2.56654 -7.05152 0.00000
					CHANNELS 3 Zrotation Yrotation Xrotation
					JOINT LeftToe
					{
						OFFSET 0.21698 -0.59616 1.85369
						CHANNELS 3 Zrotation Yrotation Xrotation
						End Site
						{
							OFFSET 0.00000 -0.00000 0.97832
						}
					}
				}
			}
		}
	}
	JOINT RHipJoint
	{
		OFFSET 0 0 0
		CHANNELS 3 Zrotation Yrotation Xrotation
		JOINT RightHip
		{
			OFFSET -1.12808 -1.82971 0.84907
			CHANNELS 3 Zrotation Yrotation Xrotation
			JOINT RightKnee
			{
				OFFSET -2.53425 -6.96280 0.00000
				CHANNELS 3 Zrotation Yrotation Xrotation
				JOINT RightAnkle
				{
					OFFSET -2.58413 -7.09983 0.00000
					CHANNELS 3 Zrotation Yrotation Xrotation
					JOINT RightToe
					{
						OFFSET -0.26437 -0.72636 1.92241
						CHANNELS 3 Zrotation Yrotation Xrotation
						End Site
						{
							OFFSET -0.00000 -0.00000 1.02667
						}
					}
				}
			}
		}
	}
	JOINT lowerback
	{
		OFFSET 0 0 0
		CHANNELS 3 Zrotation Yrotation Xrotation
		JOINT Chest
		{
			OFFSET -0.02096 2.02288 -0.14752
			CHANNELS 3 Zrotation Yrotation Xrotation
			JOINT Chest2
			{
				OFFSET 0.03477 2.03136 -0.02358
				CHANNELS 3 Zrotation Yrotation Xrotation
				JOINT lowerneck
				{
					OFFSET 0 0 0
					CHANNELS 3 Zrotation Yrotation Xrotation
					JOINT Neck
					{
						OFFSET 0.00174 1.74359 0.19336
						CHANNELS 3 Zrotation Yrotation Xrotation
						JOINT Head
						{
							OFFSET -0.03054 1.76140 -0.17751
							CHANNELS 3 Zrotation Yrotation Xrotation
							End Site
							{
								OFFSET -0.00863 1.77239 -0.08120
							}
						}
					}
				}
				JOINT LeftCollar
				{
					OFFSET 0 0 0
					CHANNELS 3 Zrotation Yrotation Xrotation
					JOINT LeftShoulder
					{
						OFFSET 3.68685 1.32687 -0.67367
CHANNELS 3 Zrotation Xrotation Yrotation
						JOINT LeftElbow
						{
OFFSET 0 -4.764680 -0.000000
CHANNELS 3 Zrotation Xrotation Yrotation
							JOINT LeftWrist
							{
OFFSET 0 -3.527120 -0.000000
CHANNELS 3 Zrotation Xrotation Yrotation
								JOINT lhand
								{
									OFFSET 0 0 0
CHANNELS 3 Zrotation Xrotation Yrotation
									JOINT LFingers
									{
OFFSET 0 -0.859560 -0.000000
CHANNELS 3 Zrotation Xrotation Yrotation
										End Site
										{
OFFSET 0 -0.693000 -0.000000
										}
									}
								}
								JOINT LThumb
								{
OFFSET 0 0.000000 0.000000
CHANNELS 3 Zrotation Xrotation Yrotation
									End Site
									{
OFFSET 0 -0.703580 0.703580
									}
								}
							}
						}
					}
				}
				JOINT RightCollar
				{
					OFFSET 0 0 0
					CHANNELS 3 Zrotation Yrotation Xrotation
					JOINT RightShoulder
					{
						OFFSET -3.31304 1.28268 -0.97357
CHANNELS 3 Zrotation Xrotation Yrotation
						JOINT RightElbow
						{
OFFSET 0 -4.905770 -0.000000
CHANNELS 3 Zrotation Xrotation Yrotation
							JOINT RightWrist
							{
OFFSET 0 -3.426920 0.000000
CHANNELS 3 Zrotation Xrotation Yrotation
								JOINT rhand
								{
									OFFSET 0 0 0
CHANNELS 3 Zrotation Xrotation Yrotation
									JOINT RFingers
									{
OFFSET 0 -0.740960 -0.000000
CHANNELS 3 Zrotation Xrotation Yrotation
										End Site
										{
OFFSET 0 -0.597380 -0.000000
										}
									}
								}
								JOINT RThumb
								{
OFFSET 0 0.000000 0.000000
CHANNELS 3 Zrotation Xrotation Yrotation
									End Site
									{
OFFSET 0 -0.606500 0.606500
									}
								}
							}
						}
					}
				}
			}
		}
	}
}
MOTION
Frames: 10
Frame Time: 0.008333333333333333
-0.057700 17.920000 -0.166200 -1.442900 -0.504400 1.557000 0.000000 0.000000 0.000000 -14.657100 3.887100 -2.071400 0.317300 3.620900 10.012500 0.372300 -1.513300 -11.097700 2.546000 -9.921000 -28.721400 0.000000 0.000000 0.000000 14.882800 1.641800 -5.443500 -1.296000 -7.212800 20.347400 -0.749400 -1.207800 -16.834000 -0.574200 -4.852800 13.489300 -6.069900 -1.914600 8.576500 1.227500 -3.095500 -0.001000 5.071700 -1.388100 -4.425500 -11.086900 -12.279900 -4.709300 9.056900 -16.721300 10.661600 3.288700 -8.171700 5.680800 -0.000000 0.000000 0.000000 -3.285300 2.174300 5.029200 18.005500 -28.164300 4.551900 7.550800 5.581000 7.892700 0.000000 0.000000 0.000000 -7.125000 0.000000 0.000000 -13.946000 22.088500 -7.909500 -0.000000 0.000000 0.000000 0.768200 -5.014400 -1.662600 -9.289000 -15.619800 -1.276800 -9.698600 20.514600 36.745000 0.000000 0.000000 0.000000 7.125000 0.000000 -0.000000 30.825700 64.554200 -15.273100
-0.090403 17.918885 -0.173199 -1.525585 -0.519327 1.522130 0.000000 0.000000 0.000000 -14.446206 3.769544 -2.040927 0.320645 3.639853 10.065518 0.371185 -1.390170 -11.107300 2.549902 -9.927999 -28.744007 0.000000 0.000000 0.000000 15.168513 1.453017 -5.030569 -1.219199 -7.001472 19.720726 -0.734845 -1.328267 -16.727221 -0.449398 -4.275861 11.857891 -5.862598 -1.937269 8.592232 1.248620 -3.105905 -0.037728 4.980158 -1.394665 -4.480871 -11.487134 -12.222485 -4.040137 9.571469 -16.696216 10.042420 3.559177 -8.175912 5.453307 0.000000 0.000000 0.000000 -3.204659 1.965698 5.522339 17.921328 -28.056283 4.512261 8.088533 5.275715 7.861422 0.000000 0.000000 0.000000 -7.125000 0.000000 0.000000 -13.564533 22.106338 -7.675256 0.000000 0.000000 0.000000 0.758228 -5.045926 -2.767672 -9.033078 -15.212505 -1.209289 -9.483804 21.747076 37.108134 0.000000 0.000000 0.000000 7.125000 0.000000 0.000000 31.506135 64.796434 -15.820619
-0.123487 17.918272 -0.180985 -1.618775 -0.544280 1.504639 0.000000 0.000000 0.000000 -14.231134 3.613696 -2.017521 0.323512 3.656012 10.110753 0.367325 -1.210556 -11.089780 2.565001 -9.954956 -28.831214 0.000000 0.000000 0.000000 15.460004 1.326448 -4.665408 -1.147244 -6.799766 19.124084 -0.719144 -1.419894 -16.593944 -0.355631 -3.827526 10.592314 -5.637249 -1.957693 8.597412 1.269597 -3.110605 -0.064191 4.876727 -1.399679 -4.521226 -11.630923 -12.172160 -3.852376 9.720708 -16.635417 9.809436 3.648385 -8.152311 5.368504 0.000000 0.000000 0.000000 -3.126524 1.725678 6.033979 17.839377 -27.950987 4.473743 8.558920 5.037680 7.812908 0.000000 0.000000 0.000000 -7.125000 0.000000 0.000000 -13.232220 22.142606 -7.465410 0.000000 0.000000 0.000000 0.758068 -5.119277 -3.888262 -8.787732 -14.821110 -1.145503 -9.277889 23.020398 37.505526 0.000000 0.000000 0.000000 7.125000 0.000000 0.000000 32.230139 65.067125 -16.420039
-0.157180 17.918457 -0.190028 -1.728712 -0.585220 1.514859 0.000000 0.000000 0.000000 -14.009401 3.396794 -2.005381 0.325618 3.667718 10.143579 0.359087 -0.940885 -11.029021 2.597951 -10.013733 -29.021422 0.000000 0.000000 0.000000 15.760706 1.299072 -4.376412 -1.083015 -6.613399 18.575326 -0.701616 -1.465542 -16.418415 -0.311346 -3.584240 9.910021 -5.383123 -1.974540 8.585768 1.290346 -3.106208 -0.074287 4.754340 -1.402218 -4.537640 -11.365835 -12.133140 -4.432164 9.287461 -16.517676 10.192204 3.448578 -8.084367 5.511206 0.000000 0.000000 0.000000 -3.052386 1.435567 6.575119 17.760965 -27.850030 4.437015 8.921931 4.906870 7.736912 0.000000 0.000000 0.000000 -7.125000 0.000000 0.000000 -12.978280 22.208258 -7.294465 0.000000 0.000000 0.000000 0.773552 -5.259316 -5.033593 -8.559248 -14.455065 -1.087654 -9.086133 24.358847 37.957539 0.000000 0.000000 0.000000 7.125000 0.000000 0.000000 33.023608 65.383187 -17.102208
-0.190731 17.921794 -0.201458 -1.900385 -0.688421 1.527895 0.000000 0.000000 0.000000 -13.722638 3.190206 -1.975480 0.325575 3.667392 10.142649 0.350038 -0.576962 -10.991943 2.600248 -10.017937 -29.034872 0.000000 0.000000 0.000000 16.143102 1.425344 -4.199811 -1.041753 -6.490582 18.214927 -0.682130 -1.564760 -16.243412 -0.290123 -3.462897 9.570211 -5.077240 -1.977063 8.581142 1.329334 -3.076648 -0.063470 4.618823 -1.394253 -4.540397 -11.214287 -12.079844 -4.785110 9.060718 -16.403468 10.343641 3.346316 -8.022056 5.572882 0.000000 0.000000 0.000000 -2.992763 1.107498 7.115686 17.672861 -27.736182 4.395942 9.215613 4.832401 7.617323 0.000000 0.000000 0.000000 -7.125000 0.000000 0.000000 -12.776718 22.318745 -7.142523 0.000000 0.000000 0.000000 0.798061 -5.455790 -6.331234 -8.291612 -14.023846 -1.022309 -9.350641 25.689418 37.476113 0.000000 0.000000 0.000000 7.125000 0.000000 0.000000 32.127863 65.060118 -16.367221
-0.223822 17.926639 -0.213666 -2.099751 -0.818464 1.542950 0.000000 0.000000 0.000000 -13.408579 2.992531 -1.936563 0.324196 3.659588 10.120754 0.340777 -0.178249 -10.968420 2.580063 -9.981676 -28.917698 0.000000 0.000000 0.000000 16.560177 1.612859 -4.075669 -1.011373 -6.398804 17.946122 -0.662915 -1.681217 -16.078568 -0.276964 -3.384767 9.351719 -4.745440 -1.973092 8.575998 1.379514 -3.035185 -0.044046 4.478794 -1.381298 -4.535727 -11.125977 -12.021288 -5.021071 8.935695 -16.293001 10.379200 3.293205 -7.963667 5.593755 0.000000 0.000000 0.000000 -2.949692 0.763345 7.656644 17.575253 -27.609798 4.350575 9.489708 4.784291 7.507194 0.000000 0.000000 0.000000 -7.125000 0.000000 0.000000 -12.588224 22.420363 -7.001516 0.000000 0.000000 0.000000 0.812508 -5.668476 -7.616307 -8.034117 -13.608183 -0.960207 -9.611473 26.978684 36.943447 0.000000 0.000000 0.000000 7.125000 0.000000 0.000000 31.167063 64.694489 -15.562672
-0.254666 17.934567 -0.226239 -2.349541 -0.993496 1.564380 0.000000 0.000000 0.000000 -13.051514 2.826417 -1.877475 0.319056 3.630725 10.039865 0.331672 0.257041 -10.980064 2.487716 -9.814571 -28.379098 0.000000 0.000000 0.000000 17.033372 1.884451 -4.054363 -1.002888 -6.372605 17.869507 -0.648298 -1.804781 -15.967701 -0.270337 -3.344261 9.238623 -4.356788 -1.957051 8.556798 1.460836 -2.969842 -0.011715 4.335473 -1.358258 -4.512872 -11.196833 -11.957246 -4.989546 9.028414 -16.197062 10.160440 3.348886 -7.917400 5.524386 0.000000 0.000000 0.000000 -2.972671 0.393274 8.200633 17.441904 -27.436437 4.289010 9.769290 4.788069 7.518033 0.000000 0.000000 0.000000 -7.125000 0.000000 0.000000 -12.386249 22.402216 -6.889039 0.000000 0.000000 0.000000 0.758190 -5.878132 -8.589269 -7.894140 -13.381000 -0.927628 -9.120688 28.057681 37.631376 0.000000 0.000000 0.000000 7.125000 0.000000 0.000000 32.564476 65.124267 -16.655667
-0.285377 17.941757 -0.238879 -2.558493 -1.127826 1.605139 0.000000 0.000000 0.000000 -12.741193 2.658927 -1.844293 0.312338 3.592669 9.933339 0.320218 0.649379 -10.947213 2.389999 -9.633641 -27.799492 0.000000 0.000000 0.000000 17.438482 2.114064 -4.072149 -0.996014 -6.351406 17.807522 -0.637171 -1.882372 -15.875123 -0.276394 -3.380530 9.340050 -4.006927 -1.950304 8.518706 1.544340 -2.920337 0.023838 4.217017 -1.342599 -4.472065 -11.375973 -11.873539 -4.704639 9.298074 -16.090988 9.655113 3.496174 -7.871637 5.346833 0.000000 0.000000 0.000000 -3.034037 0.040183 8.659524 17.320500 -27.278211 4.233217 10.059106 4.758727 7.569878 0.000000 0.000000 0.000000 -7.125000 0.000000 0.000000 -12.173972 22.342828 -6.782233 0.000000 0.000000 0.000000 0.679946 -6.048627 -9.271636 -7.767250 -13.174756 -0.898439 -9.027775 28.767361 37.784491 0.000000 0.000000 0.000000 7.125000 0.000000 0.000000 32.854141 65.225733 -16.887616
-0.315973 17.948322 -0.251576 -2.732907 -1.227729 1.662244 0.000000 0.000000 0.000000 -12.470407 2.490274 -1.833020 0.304286 3.546836 9.805131 0.306778 1.005391 -10.876730 2.287742 -9.441018 -27.185206 0.000000 0.000000 0.000000 17.786008 2.308173 -4.122999 -0.990501 -6.334435 17.757911 -0.628995 -1.921083 -15.798012 -0.293178 -3.481735 9.622914 -3.689874 -1.951419 8.464635 1.629689 -2.884228 0.062114 4.119590 -1.333185 -4.416075 -11.646698 -11.773202 -4.205431 9.717384 -15.976343 8.907415 3.720942 -7.826299 5.077781 0.000000 0.000000 0.000000 -3.127871 -0.298548 9.046442 17.209200 -27.132784 4.182305 10.357578 4.701374 7.656403 0.000000 0.000000 0.000000 -7.125000 0.000000 0.000000 -11.952983 22.248560 -6.680224 0.000000 0.000000 0.000000 0.581467 -6.186002 -9.708227 -7.651429 -12.986221 -0.872116 -9.271372 29.164684 37.485276 0.000000 0.000000 0.000000 7.125000 0.000000 0.000000 32.206904 65.049524 -16.391319
-0.348925 17.951959 -0.267202 -2.778737 -1.230693 1.711999 0.000000 0.000000 0.000000 -12.315455 2.352116 -1.871596 0.298819 3.514900 9.715859 0.294486 1.194341 -10.755766 2.232289 -9.333563 -26.844798 0.000000 0.000000 0.000000 17.971584 2.400576 -4.178501 -0.982519 -6.309482 17.685155 -0.620590 -1.951868 -15.714067 -0.317257 -3.619005 10.007313 -3.539365 -1.989173 8.466787 1.685634 -2.916976 0.091662 4.096075 -1.353404 -4.387708 -11.518118 -11.694860 -4.320368 9.556259 -15.833731 8.730561 3.667064 -7.757416 5.003355 0.000000 0.000000 0.000000 -3.231755 -0.544015 9.218173 17.159579 -27.067700 4.159706 10.747822 4.521352 7.681250 0.000000 0.000000 0.000000 -7.125000 0.000000 0.000000 -11.670314 22.212239 -6.525494 0.000000 0.000000 0.000000 0.502112 -6.257736 -9.702212 -7.621981 -12.938215 -0.865491 -9.333033 29.182861 37.309762 0.000000 0.000000 0.000000 7.125000 0.000000 0.000000 31.917277 64.922072 -16.136740
